<svg version="1.1" xmlns="http://www.w3.org/2000/svg" xmlns:xlink="http://www.w3.org/1999/xlink" width="603" height="644"><defs></defs><g><g transform="translate(-14,-14) scale(1,1)"><rect fill="#C0C0C0" stroke="none" x="105" y="31" width="99" height="44" opacity="0.2"></rect></g><g transform="translate(-14,-14) scale(1,1)"><rect fill="#ffffff" stroke="none" x="98" y="24" width="99" height="44"></rect></g><g transform="translate(-14,-14) scale(1,1)"><path fill="none" stroke="#000000" d="M 98 24 L 197 24 L 197 68 L 98 68 L 98 24 Z Z" stroke-miterlimit="10"></path></g><g transform="translate(-14,-14) scale(1,1)"><rect fill="#ffffff" stroke="none" x="88" y="31" width="20" height="10"></rect></g><g transform="translate(-14,-14) scale(1,1)"><path fill="none" stroke="#000000" d="M 88 31 L 108 31 L 108 41 L 88 41 L 88 31 Z Z" stroke-miterlimit="10"></path></g><g transform="translate(-14,-14) scale(1,1)"><rect fill="#ffffff" stroke="none" x="88" y="51" width="20" height="10"></rect></g><g transform="translate(-14,-14) scale(1,1)"><path fill="none" stroke="#000000" d="M 88 51 L 108 51 L 108 61 L 88 61 L 88 51 Z Z" stroke-miterlimit="10"></path></g><g transform="translate(-14,-14) scale(1,1)"><g><path fill="none" stroke="none"></path><text fill="#000000" stroke="none" font-family="Arial" font-size="13px" font-style="normal" font-weight="normal" text-decoration="none" x="113.5" y="41.5">«component»</text></g></g><g transform="translate(-14,-14) scale(1,1)"><g><path fill="none" stroke="none"></path><text fill="#000000" stroke="none" font-family="Arial" font-size="13px" font-style="normal" font-weight="bold" text-decoration="none" x="116.5" y="56.5">PickUpShop</text></g></g><g transform="translate(-14,-14) scale(1,1)"><rect fill="#C0C0C0" stroke="none" x="321" y="31" width="198" height="44" opacity="0.2"></rect></g><g transform="translate(-14,-14) scale(1,1)"><rect fill="#ffffff" stroke="none" x="314" y="24" width="198" height="44"></rect></g><g transform="translate(-14,-14) scale(1,1)"><path fill="none" stroke="#000000" d="M 314 24 L 512 24 L 512 68 L 314 68 L 314 24 Z Z" stroke-miterlimit="10"></path></g><g transform="translate(-14,-14) scale(1,1)"><rect fill="#ffffff" stroke="none" x="304" y="31" width="20" height="10"></rect></g><g transform="translate(-14,-14) scale(1,1)"><path fill="none" stroke="#000000" d="M 304 31 L 324 31 L 324 41 L 304 41 L 304 31 Z Z" stroke-miterlimit="10"></path></g><g transform="translate(-14,-14) scale(1,1)"><rect fill="#ffffff" stroke="none" x="304" y="51" width="20" height="10"></rect></g><g transform="translate(-14,-14) scale(1,1)"><path fill="none" stroke="#000000" d="M 304 51 L 324 51 L 324 61 L 304 61 L 304 51 Z Z" stroke-miterlimit="10"></path></g><g transform="translate(-14,-14) scale(1,1)"><g><path fill="none" stroke="none"></path><text fill="#000000" stroke="none" font-family="Arial" font-size="13px" font-style="normal" font-weight="bold" text-decoration="none" x="349" y="43.5">WebFrontendUseCases</text></g></g><g transform="translate(-14,-14) scale(1,1)"><path fill="none" stroke="#000000" d="M 126.53972378018389 138.044976981682 A 11.5 11.5 0 0 1 149.4602762198161 139.955023018318" stroke-miterlimit="10"></path></g><g transform="translate(-14,-14) scale(1,1)"><g><path fill="none" stroke="none"></path><text fill="#000000" stroke="none" font-family="Arial" font-size="13px" font-style="normal" font-weight="bold" text-decoration="none" x="138.5" y="170.5"></text></g></g><g transform="translate(-14,-14) scale(1,1)"><path fill="none" stroke="#000000" d="M 141 69 L 138.91666666666666 128" stroke-miterlimit="10"></path></g><g transform="translate(-14,-14) scale(1,1)"><path fill="none" stroke="#000000" d="M 405.6564698759303 148.89058835401158 A 11.5 11.5 0 0 1 428.3435301240697 145.10941164598842" stroke-miterlimit="10"></path></g><g transform="translate(-14,-14) scale(1,1)"><g><path fill="none" stroke="none"></path><text fill="#000000" stroke="none" font-family="Arial" font-size="13px" font-style="normal" font-weight="bold" text-decoration="none" x="417" y="178.5"></text></g></g><g transform="translate(-14,-14) scale(1,1)"><path fill="none" stroke="#000000" d="M 410 69 L 415.1666666666667 136" stroke-miterlimit="10"></path></g><g transform="translate(-14,-14) scale(1,1)"><rect fill="#C0C0C0" stroke="none" x="153" y="279" width="294" height="104" opacity="0.2"></rect></g><g transform="translate(-14,-14) scale(1,1)"><rect fill="#ffffff" stroke="none" x="146" y="272" width="294" height="104"></rect></g><g transform="translate(-14,-14) scale(1,1)"><path fill="none" stroke="#000000" d="M 146 272 L 440 272 L 440 376 L 146 376 L 146 272 Z Z" stroke-miterlimit="10"></path></g><g transform="translate(-14,-14) scale(1,1)"><rect fill="#ffffff" stroke="none" x="136" y="279" width="20" height="10"></rect></g><g transform="translate(-14,-14) scale(1,1)"><path fill="none" stroke="#000000" d="M 136 279 L 156 279 L 156 289 L 136 289 L 136 279 Z Z" stroke-miterlimit="10"></path></g><g transform="translate(-14,-14) scale(1,1)"><rect fill="#ffffff" stroke="none" x="136" y="299" width="20" height="10"></rect></g><g transform="translate(-14,-14) scale(1,1)"><path fill="none" stroke="#000000" d="M 136 299 L 156 299 L 156 309 L 136 309 L 136 299 Z Z" stroke-miterlimit="10"></path></g><g transform="translate(-14,-14) scale(1,1)"><g><path fill="none" stroke="none"></path><text fill="#000000" stroke="none" font-family="Arial" font-size="13px" font-style="normal" font-weight="bold" text-decoration="none" x="255.5" y="291.5">Tradingsystem</text></g></g><g transform="translate(-14,-14) scale(1,1)"><rect fill="#C0C0C0" stroke="none" x="177" y="319" width="99" height="44" opacity="0.2"></rect></g><g transform="translate(-14,-14) scale(1,1)"><rect fill="#ffffff" stroke="none" x="170" y="312" width="99" height="44"></rect></g><g transform="translate(-14,-14) scale(1,1)"><path fill="none" stroke="#000000" d="M 170 312 L 269 312 L 269 356 L 170 356 L 170 312 Z Z" stroke-miterlimit="10"></path></g><g transform="translate(-14,-14) scale(1,1)"><rect fill="#ffffff" stroke="none" x="160" y="319" width="20" height="10"></rect></g><g transform="translate(-14,-14) scale(1,1)"><path fill="none" stroke="#000000" d="M 160 319 L 180 319 L 180 329 L 160 329 L 160 319 Z Z" stroke-miterlimit="10"></path></g><g transform="translate(-14,-14) scale(1,1)"><rect fill="#ffffff" stroke="none" x="160" y="339" width="20" height="10"></rect></g><g transform="translate(-14,-14) scale(1,1)"><path fill="none" stroke="#000000" d="M 160 339 L 180 339 L 180 349 L 160 349 L 160 339 Z Z" stroke-miterlimit="10"></path></g><g transform="translate(-14,-14) scale(1,1)"><g><path fill="none" stroke="none"></path><text fill="#000000" stroke="none" font-family="Arial" font-size="13px" font-style="normal" font-weight="bold" text-decoration="none" x="199" y="331.5">Inventory</text></g></g><g transform="translate(-14,-14) scale(1,1)"><rect fill="#C0C0C0" stroke="none" x="321" y="319" width="108" height="44" opacity="0.2"></rect></g><g transform="translate(-14,-14) scale(1,1)"><rect fill="#ffffff" stroke="none" x="314" y="312" width="108" height="44"></rect></g><g transform="translate(-14,-14) scale(1,1)"><path fill="none" stroke="#000000" d="M 314 312 L 422 312 L 422 356 L 314 356 L 314 312 Z Z" stroke-miterlimit="10"></path></g><g transform="translate(-14,-14) scale(1,1)"><rect fill="#ffffff" stroke="none" x="304" y="319" width="20" height="10"></rect></g><g transform="translate(-14,-14) scale(1,1)"><path fill="none" stroke="#000000" d="M 304 319 L 324 319 L 324 329 L 304 329 L 304 319 Z Z" stroke-miterlimit="10"></path></g><g transform="translate(-14,-14) scale(1,1)"><rect fill="#ffffff" stroke="none" x="304" y="339" width="20" height="10"></rect></g><g transform="translate(-14,-14) scale(1,1)"><path fill="none" stroke="#000000" d="M 304 339 L 324 339 L 324 349 L 304 349 L 304 339 Z Z" stroke-miterlimit="10"></path></g><g transform="translate(-14,-14) scale(1,1)"><g><path fill="none" stroke="none"></path><text fill="#000000" stroke="none" font-family="Arial" font-size="13px" font-style="normal" font-weight="bold" text-decoration="none" x="331" y="331.5">CashDeskLine</text></g></g><g transform="translate(-14,-14) scale(1,1)"><path fill="#C0C0C0" stroke="none" d="M 134 162.5 C 134 156.1487248 139.1487248 151 145.5 151 C 151.8512752 151 157 156.1487248 157 162.5 C 157 168.8512752 151.8512752 174 145.5 174 C 139.1487248 174 134 168.8512752 134 162.5 Z" opacity="0.2"></path></g><g transform="translate(-14,-14) scale(1,1)"><path fill="#ffffff" stroke="none" d="M 127 155.5 C 127 149.1487248 132.1487248 144 138.5 144 C 144.8512752 144 150 149.1487248 150 155.5 C 150 161.8512752 144.8512752 167 138.5 167 C 132.1487248 167 127 161.8512752 127 155.5 Z"></path></g><g transform="translate(-14,-14) scale(1,1)"><path fill="none" stroke="#000000" d="M 127 155.5 C 127 149.1487248 132.1487248 144 138.5 144 C 144.8512752 144 150 149.1487248 150 155.5 C 150 161.8512752 144.8512752 167 138.5 167 C 132.1487248 167 127 161.8512752 127 155.5 Z" stroke-miterlimit="10"></path></g><g transform="translate(-14,-14) scale(1,1)"><g><path fill="none" stroke="none"></path><text fill="#000000" stroke="none" font-family="Arial" font-size="13px" font-style="normal" font-weight="bold" text-decoration="none" x="138.5" y="186.5"></text></g></g><g transform="translate(-14,-14) scale(1,1)"><path fill="none" stroke="#000000" d="M 237 271 L 145.57894736842104 167" stroke-miterlimit="10"></path></g><g transform="translate(-14,-14) scale(1,1)"><path fill="#C0C0C0" stroke="none" d="M 412.5 170.5 C 412.5 164.1487248 417.6487248 159 424 159 C 430.3512752 159 435.5 164.1487248 435.5 170.5 C 435.5 176.8512752 430.3512752 182 424 182 C 417.6487248 182 412.5 176.8512752 412.5 170.5 Z" opacity="0.2"></path></g><g transform="translate(-14,-14) scale(1,1)"><path fill="#ffffff" stroke="none" d="M 405.5 163.5 C 405.5 157.1487248 410.6487248 152 417 152 C 423.3512752 152 428.5 157.1487248 428.5 163.5 C 428.5 169.8512752 423.3512752 175 417 175 C 410.6487248 175 405.5 169.8512752 405.5 163.5 Z"></path></g><g transform="translate(-14,-14) scale(1,1)"><path fill="none" stroke="#000000" d="M 405.5 163.5 C 405.5 157.1487248 410.6487248 152 417 152 C 423.3512752 152 428.5 157.1487248 428.5 163.5 C 428.5 169.8512752 423.3512752 175 417 175 C 410.6487248 175 405.5 169.8512752 405.5 163.5 Z" stroke-miterlimit="10"></path></g><g transform="translate(-14,-14) scale(1,1)"><g><path fill="none" stroke="none"></path><text fill="#000000" stroke="none" font-family="Arial" font-size="13px" font-style="normal" font-weight="bold" text-decoration="none" x="417" y="194.5"></text></g></g><g transform="translate(-14,-14) scale(1,1)"><path fill="none" stroke="#000000" d="M 334 271 L 410.05263157894734 175" stroke-miterlimit="10"></path></g><g transform="translate(-14,-14) scale(1,1)"><rect fill="#C0C0C0" stroke="none" x="161" y="551" width="294" height="104" opacity="0.2"></rect></g><g transform="translate(-14,-14) scale(1,1)"><rect fill="#ffffff" stroke="none" x="154" y="544" width="294" height="104"></rect></g><g transform="translate(-14,-14) scale(1,1)"><path fill="none" stroke="#000000" d="M 154 544 L 448 544 L 448 648 L 154 648 L 154 544 Z Z" stroke-miterlimit="10"></path></g><g transform="translate(-14,-14) scale(1,1)"><rect fill="#ffffff" stroke="none" x="144" y="551" width="20" height="10"></rect></g><g transform="translate(-14,-14) scale(1,1)"><path fill="none" stroke="#000000" d="M 144 551 L 164 551 L 164 561 L 144 561 L 144 551 Z Z" stroke-miterlimit="10"></path></g><g transform="translate(-14,-14) scale(1,1)"><rect fill="#ffffff" stroke="none" x="144" y="571" width="20" height="10"></rect></g><g transform="translate(-14,-14) scale(1,1)"><path fill="none" stroke="#000000" d="M 144 571 L 164 571 L 164 581 L 144 581 L 144 571 Z Z" stroke-miterlimit="10"></path></g><g transform="translate(-14,-14) scale(1,1)"><g><path fill="none" stroke="none"></path><text fill="#000000" stroke="none" font-family="Arial" font-size="13px" font-style="normal" font-weight="bold" text-decoration="none" x="263.5" y="563.5">Tradingsystem</text></g></g><g transform="translate(-14,-14) scale(1,1)"><rect fill="#C0C0C0" stroke="none" x="193" y="599" width="99" height="44" opacity="0.2"></rect></g><g transform="translate(-14,-14) scale(1,1)"><rect fill="#ffffff" stroke="none" x="186" y="592" width="99" height="44"></rect></g><g transform="translate(-14,-14) scale(1,1)"><path fill="none" stroke="#000000" d="M 186 592 L 285 592 L 285 636 L 186 636 L 186 592 Z Z" stroke-miterlimit="10"></path></g><g transform="translate(-14,-14) scale(1,1)"><rect fill="#ffffff" stroke="none" x="176" y="599" width="20" height="10"></rect></g><g transform="translate(-14,-14) scale(1,1)"><path fill="none" stroke="#000000" d="M 176 599 L 196 599 L 196 609 L 176 609 L 176 599 Z Z" stroke-miterlimit="10"></path></g><g transform="translate(-14,-14) scale(1,1)"><rect fill="#ffffff" stroke="none" x="176" y="619" width="20" height="10"></rect></g><g transform="translate(-14,-14) scale(1,1)"><path fill="none" stroke="#000000" d="M 176 619 L 196 619 L 196 629 L 176 629 L 176 619 Z Z" stroke-miterlimit="10"></path></g><g transform="translate(-14,-14) scale(1,1)"><g><path fill="none" stroke="none"></path><text fill="#000000" stroke="none" font-family="Arial" font-size="13px" font-style="normal" font-weight="bold" text-decoration="none" x="215" y="611.5">Inventory</text></g></g><g transform="translate(-14,-14) scale(1,1)"><rect fill="#C0C0C0" stroke="none" x="313" y="591" width="108" height="44" opacity="0.2"></rect></g><g transform="translate(-14,-14) scale(1,1)"><rect fill="#ffffff" stroke="none" x="306" y="584" width="108" height="44"></rect></g><g transform="translate(-14,-14) scale(1,1)"><path fill="none" stroke="#000000" d="M 306 584 L 414 584 L 414 628 L 306 628 L 306 584 Z Z" stroke-miterlimit="10"></path></g><g transform="translate(-14,-14) scale(1,1)"><rect fill="#ffffff" stroke="none" x="296" y="591" width="20" height="10"></rect></g><g transform="translate(-14,-14) scale(1,1)"><path fill="none" stroke="#000000" d="M 296 591 L 316 591 L 316 601 L 296 601 L 296 591 Z Z" stroke-miterlimit="10"></path></g><g transform="translate(-14,-14) scale(1,1)"><rect fill="#ffffff" stroke="none" x="296" y="611" width="20" height="10"></rect></g><g transform="translate(-14,-14) scale(1,1)"><path fill="none" stroke="#000000" d="M 296 611 L 316 611 L 316 621 L 296 621 L 296 611 Z Z" stroke-miterlimit="10"></path></g><g transform="translate(-14,-14) scale(1,1)"><g><path fill="none" stroke="none"></path><text fill="#000000" stroke="none" font-family="Arial" font-size="13px" font-style="normal" font-weight="bold" text-decoration="none" x="323" y="603.5">CashDeskLine</text></g></g><g transform="translate(-14,-14) scale(1,1)"><path fill="#C0C0C0" stroke="none" d="M 279.5 482.5 C 279.5 476.1487248 284.6487248 471 291 471 C 297.3512752 471 302.5 476.1487248 302.5 482.5 C 302.5 488.8512752 297.3512752 494 291 494 C 284.6487248 494 279.5 488.8512752 279.5 482.5 Z" opacity="0.2"></path></g><g transform="translate(-14,-14) scale(1,1)"><path fill="#ffffff" stroke="none" d="M 272.5 475.5 C 272.5 469.1487248 277.6487248 464 284 464 C 290.3512752 464 295.5 469.1487248 295.5 475.5 C 295.5 481.8512752 290.3512752 487 284 487 C 277.6487248 487 272.5 481.8512752 272.5 475.5 Z"></path></g><g transform="translate(-14,-14) scale(1,1)"><path fill="none" stroke="#000000" d="M 272.5 475.5 C 272.5 469.1487248 277.6487248 464 284 464 C 290.3512752 464 295.5 469.1487248 295.5 475.5 C 295.5 481.8512752 290.3512752 487 284 487 C 277.6487248 487 272.5 481.8512752 272.5 475.5 Z" stroke-miterlimit="10"></path></g><g transform="translate(-14,-14) scale(1,1)"><g><path fill="none" stroke="none"></path><text fill="#000000" stroke="none" font-family="Arial" font-size="13px" font-style="normal" font-weight="bold" text-decoration="none" x="284" y="506.5"></text></g></g><g transform="translate(-14,-14) scale(1,1)"><path fill="none" stroke="#000000" d="M 290 543 L 284.94736842105266 487" stroke-miterlimit="10"></path></g><g transform="translate(-14,-14) scale(1,1)"><path fill="none" stroke="#000000" d="M 359.12135717852044 453.9266729417159 A 11.5 11.5 0 0 1 336.87864282147956 448.0733270582841" stroke-miterlimit="10"></path></g><g transform="translate(-14,-14) scale(1,1)"><g><path fill="none" stroke="none"></path><text fill="#000000" stroke="none" font-family="Arial" font-size="13px" font-style="normal" font-weight="bold" text-decoration="none" x="348" y="482.5"></text></g></g><g transform="translate(-14,-14) scale(1,1)"><path fill="none" stroke="#000000" d="M 317 543 L 344.8421052631579 463" stroke-miterlimit="10"></path></g><g transform="translate(-14,-14) scale(1,1)"><path fill="#C0C0C0" stroke="none" d="M 343.5 442.5 C 343.5 436.1487248 348.6487248 431 355 431 C 361.3512752 431 366.5 436.1487248 366.5 442.5 C 366.5 448.8512752 361.3512752 454 355 454 C 348.6487248 454 343.5 448.8512752 343.5 442.5 Z" opacity="0.2"></path></g><g transform="translate(-14,-14) scale(1,1)"><path fill="#ffffff" stroke="none" d="M 336.5 435.5 C 336.5 429.1487248 341.6487248 424 348 424 C 354.3512752 424 359.5 429.1487248 359.5 435.5 C 359.5 441.8512752 354.3512752 447 348 447 C 341.6487248 447 336.5 441.8512752 336.5 435.5 Z"></path></g><g transform="translate(-14,-14) scale(1,1)"><path fill="none" stroke="#000000" d="M 336.5 435.5 C 336.5 429.1487248 341.6487248 424 348 424 C 354.3512752 424 359.5 429.1487248 359.5 435.5 C 359.5 441.8512752 354.3512752 447 348 447 C 341.6487248 447 336.5 441.8512752 336.5 435.5 Z" stroke-miterlimit="10"></path></g><g transform="translate(-14,-14) scale(1,1)"><g><path fill="none" stroke="none"></path><text fill="#000000" stroke="none" font-family="Arial" font-size="13px" font-style="normal" font-weight="bold" text-decoration="none" x="348" y="466.5"></text></g></g><g transform="translate(-14,-14) scale(1,1)"><path fill="none" stroke="#000000" d="M 314 377 L 337 424" stroke-miterlimit="10"></path></g><g transform="translate(-14,-14) scale(1,1)"><path fill="none" stroke="#000000" d="M 272.53972378018386 458.04497698168194 A 11.5 11.5 0 0 1 295.46027621981614 459.955023018318" stroke-miterlimit="10"></path></g><g transform="translate(-14,-14) scale(1,1)"><g><path fill="none" stroke="none"></path><text fill="#000000" stroke="none" font-family="Arial" font-size="13px" font-style="normal" font-weight="bold" text-decoration="none" x="284" y="490.5"></text></g></g><g transform="translate(-14,-14) scale(1,1)"><path fill="none" stroke="#000000" d="M 287 377 L 284.9166666666667 448" stroke-miterlimit="10"></path></g><g transform="translate(-14,-14) scale(1,1)"><rect fill="#C0C0C0" stroke="none" x="497" y="479" width="117" height="44" opacity="0.2"></rect></g><g transform="translate(-14,-14) scale(1,1)"><rect fill="#ffffff" stroke="none" x="490" y="472" width="117" height="44"></rect></g><g transform="translate(-14,-14) scale(1,1)"><path fill="none" stroke="#000000" d="M 490 472 L 607 472 L 607 516 L 490 516 L 490 472 Z Z" stroke-miterlimit="10"></path></g><g transform="translate(-14,-14) scale(1,1)"><rect fill="#ffffff" stroke="none" x="480" y="479" width="20" height="10"></rect></g><g transform="translate(-14,-14) scale(1,1)"><path fill="none" stroke="#000000" d="M 480 479 L 500 479 L 500 489 L 480 489 L 480 479 Z Z" stroke-miterlimit="10"></path></g><g transform="translate(-14,-14) scale(1,1)"><rect fill="#ffffff" stroke="none" x="480" y="499" width="20" height="10"></rect></g><g transform="translate(-14,-14) scale(1,1)"><path fill="none" stroke="#000000" d="M 480 499 L 500 499 L 500 509 L 480 509 L 480 499 Z Z" stroke-miterlimit="10"></path></g><g transform="translate(-14,-14) scale(1,1)"><g><path fill="none" stroke="none"></path><text fill="#000000" stroke="none" font-family="Arial" font-size="13px" font-style="normal" font-weight="bold" text-decoration="none" x="510" y="491.5">ServiceAdapter</text></g></g><g transform="translate(-14,-14) scale(1,1)"><path fill="#C0C0C0" stroke="none" d="M 527.5 586.5 C 527.5 580.1487248 532.6487248 575 539 575 C 545.3512752 575 550.5 580.1487248 550.5 586.5 C 550.5 592.8512752 545.3512752 598 539 598 C 532.6487248 598 527.5 592.8512752 527.5 586.5 Z" opacity="0.2"></path></g><g transform="translate(-14,-14) scale(1,1)"><path fill="#ffffff" stroke="none" d="M 520.5 579.5 C 520.5 573.1487248 525.6487248 568 532 568 C 538.3512752 568 543.5 573.1487248 543.5 579.5 C 543.5 585.8512752 538.3512752 591 532 591 C 525.6487248 591 520.5 585.8512752 520.5 579.5 Z"></path></g><g transform="translate(-14,-14) scale(1,1)"><path fill="none" stroke="#000000" d="M 520.5 579.5 C 520.5 573.1487248 525.6487248 568 532 568 C 538.3512752 568 543.5 573.1487248 543.5 579.5 C 543.5 585.8512752 538.3512752 591 532 591 C 525.6487248 591 520.5 585.8512752 520.5 579.5 Z" stroke-miterlimit="10"></path></g><g transform="translate(-14,-14) scale(1,1)"><g><path fill="none" stroke="none"></path><text fill="#000000" stroke="none" font-family="Arial" font-size="13px" font-style="normal" font-weight="bold" text-decoration="none" x="532" y="610.5"></text></g></g><g transform="translate(-14,-14) scale(1,1)"><path fill="none" stroke="#000000" d="M 540 517 L 534.75 568" stroke-miterlimit="10"></path></g><g transform="translate(-14,-14) scale(1,1)"><path fill="none" stroke="#000000" d="M 520.0697591202827 589.7557919607473 A 11.5 11.5 0 0 1 511.93024087971725 568.2442080392527" stroke-miterlimit="10"></path></g><g transform="translate(-14,-14) scale(1,1)"><g><path fill="none" stroke="none"></path><text fill="#000000" stroke="none" font-family="Arial" font-size="13px" font-style="normal" font-weight="bold" text-decoration="none" x="516" y="610.5"></text></g></g><g transform="translate(-14,-14) scale(1,1)"><path fill="none" stroke="#000000" d="M 449 593 L 504.5 583.3513513513514" stroke-miterlimit="10"></path></g></g></svg>